<?xml version="1.0" encoding="utf-8"?>
<!-- Generator: Adobe Illustrator 22.1.0, SVG Export Plug-In . SVG Version: 6.00 Build 0)  -->
<svg version="1.1" id="Layer_1" xmlns="http://www.w3.org/2000/svg" xmlns:xlink="http://www.w3.org/1999/xlink" x="0px" y="0px"
	 viewBox="0 0 1075.1 979.8" style="enable-background:new 0 0 1075.1 979.8;" xml:space="preserve">
<style type="text/css">
	.st0{fill:#FFFFFF;}
</style>
<title>nb logo</title>
<path class="st0" d="M949.1,596.7c-3.8-49.7-26.6-96-63.6-129.3c-13.3-12.2-28.6-22.2-43.4-33.5c0.3-0.8,0.7-1.6,1.3-2.3
	c1.1-0.9,2.3-1.8,3.5-2.6c48.1-33,80.1-77.2,89.2-135.7c9.1-58.5,0-113-35-161.2C853.6,66.9,785.9,34.9,707.9,31.7
	c-65.4-2.7-214-3.7-279.4-3.3l0,0.1h-0.2v118.2l78.8,144.4c0-0.2-0.7-72-0.8-145.5c61.2-0.9,156.2-1.9,197.7,0
	c49.4,2.2,90.3,24,108.1,73.2c24.2,67-4.8,142.1-88.4,158.5c-14.7,2.7-29.6,4-44.5,4c-54.3,0.4-118.2,1.8-119.4,1.6l65.6,113.8
	c0.9,0,13.8-1.3,76.1-0.4c35.7,0.5,69.4,9.2,96,35.4c54.7,53.8,41.1,155.2-25.8,192.6c-23.8,13.6-50.8,20.7-78.3,20.6
	c-39.1-0.2-78.1-0.1-117.2-0.1c-57.6-100.1-183.7-317.7-240.6-416.6c-54.5-94.7-109.4-189.3-163.3-284.3
	c-4.3-9.7-14.4-15.4-24.9-14.2c-34.3,0.9-68.6,0.6-102.9,0c-9,0-11.8,2.7-11.8,11.8c0.2,268.8,0.2,537.5,0,806.3
	c0,9.6,3.5,11.5,12.1,11.3c30.6-0.4,61.3,0,91.9,0c14.7,0,14.7,0,14.7-15V240.8c2.8,1,5.1,3,6.5,5.6
	c33.1,58.7,66.2,117.4,99.2,176.1C337.8,565.2,418.4,707.9,499,850.7c2.5,5.8,8.4,9.3,14.7,8.8c0,0,0.1-0.1,0.3-0.4
	c53.9,0,107.8,0,161.7,0c35,0,70-2.1,103.8-12.2c49.3-14.7,91.9-39.8,124.6-80.6C943.8,716.4,955,658.7,949.1,596.7z"/>
</svg>
